# xmcd
#
# Track frame offsets: 
#        150
#        30901
#        61199
#        87256
#
# Disc length: 1910 seconds
#
# Revision: 0
# Processed by: cddbd v1.5.2PL0 Copyright (c) Steve Scherf et al.
# Submitted via: ExactAudioCopy v0.95a5
#
DISCID=22077404
DTITLE=Tranquilidade - Tranquilidade
DYEAR=2008
DGENRE=Alternative
TTITLE0=Mikhael
TTITLE1=Lago de Cristal
TTITLE2=Janela da Alma
TTITLE3=Portal dos sonhos
EXTD=
EXTT0=
EXTT1=
EXTT2=
EXTT3=
PLAYORDER=
